# xmcd CD database file
#
# Track frame offsets:
#	150
#	13445
#	24409
#	36415
#	47322
#	60613
#	71224
#	82001
#	91864
#	103620
#	115376
#	127962
#	139398
#	149468
#	160426
#	170429
#	182673
#	193239
#	203438
#	213709
#	223831
#	235327
#	244541
#	254664
#	265811
#	276190
#	286446
#	296432
#
# Disc length: 4087 seconds
#
# Revision: 0
# Processed by: cddbd v1.5.2PL0 Copyright (c) Steve Scherf et al.
# Submitted via: CDex 1.51
#
DISCID=bb0ff51c
DTITLE=Connie Hall - Heartbreak Avenue
DYEAR=1900
DGENRE=Country
TTITLE0=Connie Hall/I'm The Girl In The USA
TTITLE1=Connie Hall/A Hundred Hearts Or More
TTITLE2=Connie Hall/You Deserve Your Invitation To The Blues
TTITLE3=Connie Hall/Heartache Avenue
TTITLE4=Connie Hall/Third Party At The Table
TTITLE5=Connie Hall/Bottle Or Me
TTITLE6=Connie Hall/After Date Rendezvous
TTITLE7=Connie Hall/It's Not Wrong
TTITLE8=Connie Hall/Poison In Your Hand
TTITLE9=Connie Hall/Sleep Baby Sleep
TTITLE10=Connie Hall/Sitting Out The Last Dance
TTITLE11=Connie Hall/Fools Like Me
TTITLE12=Connie Hall/I'm As Lonely As Anyone Can Be
TTITLE13=Connie Hall/What Pleasure
TTITLE14=Connie Hall/Key To Your World
TTITLE15=Connie Hall/We Don't Have Much In Common Anymore
TTITLE16=Connie Hall/Foolin' Around
TTITLE17=Connie Hall/You're The Only Good Thing That's Happened to Me
TTITLE18=Connie Hall/Yellow Roses
TTITLE19=Connie Hall/Slowly
TTITLE20=Connie Hall/Pick Me Up On Your Way Down
TTITLE21=Connie Hall/Love's Been Good To Me
TTITLE22=Connie Hall/I Miss You Every Way
TTITLE23=Connie Hall/Many Tears Ago
TTITLE24=Connie Hall/Half The Time
TTITLE25=Connie Hall/Half The Time
TTITLE26=Connie Hall/Don't Tempt Me
TTITLE27=Connie Hall/It's Not Revenge I Want
EXTD=
EXTT0=
EXTT1=
EXTT2=
EXTT3=
EXTT4=
EXTT5=
EXTT6=
EXTT7=
EXTT8=
EXTT9=
EXTT10=
EXTT11=
EXTT12=
EXTT13=
EXTT14=
EXTT15=
EXTT16=
EXTT17=
EXTT18=
EXTT19=
EXTT20=
EXTT21=
EXTT22=
EXTT23=
EXTT24=
EXTT25=
EXTT26=
EXTT27=
PLAYORDER=
